<?xml version="1.0" standalone="no"?>
<!DOCTYPE svg PUBLIC "-//W3C//DTD SVG 20010904//EN"
 "http://www.w3.org/TR/2001/REC-SVG-20010904/DTD/svg10.dtd">
<svg version="1.0" xmlns="http://www.w3.org/2000/svg"
 width="877.000000pt" height="1280.000000pt" viewBox="0 0 877.000000 1280.000000"
 preserveAspectRatio="xMidYMid meet">
<g transform="translate(0.000000,1280.000000) scale(0.100000,-0.100000)"
fill="#000000" stroke="none">
<path d="M5858 12784 c-4 -3 -4 -21 -1 -39 5 -28 1 -36 -23 -51 -16 -10 -47
-33 -70 -51 -51 -41 -64 -41 -86 -3 -14 24 -24 30 -51 30 -42 0 -57 -17 -64
-72 -6 -44 -27 -78 -48 -78 -7 0 -31 -18 -54 -40 -41 -40 -46 -42 -140 -44
-37 -1 -45 -11 -75 -88 -9 -23 -26 -43 -42 -50 -25 -12 -29 -9 -74 40 -30 32
-46 59 -44 70 7 28 -41 42 -143 42 -50 0 -103 5 -117 11 -20 10 -32 8 -63 -6
-21 -10 -44 -26 -51 -37 -18 -25 -33 -23 -65 12 -27 28 -34 30 -101 30 -48 0
-79 5 -92 15 -13 10 -45 14 -106 15 -79 0 -88 -2 -99 -21 -11 -21 -15 -21
-282 -17 l-272 3 -42 28 c-41 26 -46 27 -188 27 -135 0 -145 -1 -145 -19 0
-45 27 -44 -1039 -36 -920 6 -1009 6 -1014 -9 -9 -23 -248 -24 -267 -1 -9 11
-33 15 -92 15 -94 0 -100 -7 -73 -85 24 -73 15 -120 -30 -146 -30 -18 -37 -32
-74 -147 -22 -70 -51 -143 -65 -163 -24 -36 -24 -36 -5 -53 24 -20 19 -61 -13
-114 l-20 -33 25 -57 c14 -31 38 -91 53 -132 50 -140 109 -211 179 -216 53 -3
65 -9 65 -33 0 -13 -17 -25 -55 -41 -52 -21 -56 -25 -70 -73 -21 -70 -19 -86
11 -97 14 -6 34 -20 43 -32 10 -11 33 -26 52 -32 57 -18 54 -78 -7 -139 l-37
-37 12 -69 c6 -39 11 -105 11 -149 0 -71 4 -86 35 -145 40 -75 41 -86 19 -170
l-15 -60 30 -59 c38 -71 39 -92 5 -121 -41 -35 -84 -137 -77 -181 4 -26 11
-36 24 -36 17 0 69 -63 69 -83 0 -4 -11 -25 -25 -45 -16 -23 -25 -51 -25 -75
0 -34 7 -44 76 -110 94 -89 114 -125 114 -209 0 -34 0 -76 1 -91 1 -18 -9 -42
-29 -67 -64 -78 -64 -111 -2 -123 16 -4 37 -18 46 -32 24 -36 11 -71 -34 -94
-46 -24 -63 -42 -96 -108 -14 -28 -35 -54 -46 -58 -17 -5 -19 -12 -14 -48 3
-23 1 -62 -6 -86 -15 -55 -7 -63 79 -80 35 -7 80 -18 100 -24 l36 -12 0 -64
c1 -62 2 -65 40 -98 34 -30 39 -39 40 -81 1 -27 11 -64 23 -87 28 -50 27 -57
-3 -93 -31 -37 -31 -42 -1 -42 13 0 28 -6 34 -12 8 -11 186 -1047 194 -1133 3
-28 -2 -32 -62 -62 -50 -25 -74 -32 -102 -28 -34 5 -39 2 -53 -25 -15 -29 -15
-34 10 -97 29 -72 28 -126 -3 -141 -9 -5 -40 -12 -69 -15 -74 -8 -97 -23 -162
-108 -51 -66 -61 -74 -89 -73 -36 2 -37 0 -47 -108 -6 -61 -9 -69 -41 -93 -21
-16 -34 -35 -34 -49 0 -13 -9 -35 -20 -49 -11 -14 -20 -33 -20 -43 0 -10 -9
-27 -19 -38 -11 -12 -48 -84 -84 -161 l-64 -140 -7 -117 c-5 -83 -12 -130 -26
-160 -11 -24 -20 -56 -20 -73 0 -16 -7 -55 -15 -85 -8 -30 -18 -89 -21 -132
-6 -67 -4 -80 15 -111 11 -19 21 -39 21 -46 0 -6 -24 -44 -53 -84 -72 -98 -71
-94 -78 -166 -4 -36 -12 -67 -20 -72 -8 -5 -35 -9 -60 -9 -25 0 -52 -6 -61
-12 -8 -7 -42 -62 -75 -123 -97 -177 -135 -247 -165 -300 -35 -63 -38 -133 -8
-160 11 -10 20 -22 20 -27 0 -5 10 -22 21 -38 l22 -29 -27 -31 c-14 -17 -26
-40 -26 -51 0 -10 -11 -26 -25 -35 -14 -9 -32 -32 -40 -51 -14 -32 -13 -36 5
-51 16 -13 22 -34 26 -87 3 -38 33 -174 65 -301 32 -127 59 -247 59 -266 0
-26 6 -40 24 -51 13 -9 45 -57 70 -107 43 -83 50 -107 75 -253 26 -150 33
-171 86 -282 l57 -120 -6 -149 -7 -149 56 5 c35 3 59 0 65 -7 6 -7 6 -38 1
-81 -8 -64 -7 -70 13 -86 30 -25 72 -22 123 8 l43 25 58 -19 c31 -11 70 -23
85 -26 34 -8 47 -38 47 -107 0 -56 28 -178 66 -282 25 -71 33 -134 19 -157 -5
-8 -21 -11 -50 -7 -38 6 -43 4 -49 -16 -11 -41 -6 -122 9 -151 8 -15 15 -44
15 -64 0 -22 8 -44 20 -57 28 -30 40 -155 15 -175 -19 -16 -130 -21 -159 -7
-33 16 -117 17 -147 2 -15 -8 -38 -15 -49 -15 -12 0 -35 -8 -51 -17 -29 -17
-30 -17 -104 21 -71 36 -78 38 -114 27 -21 -6 -51 -11 -65 -11 -18 0 -26 -5
-24 -12 5 -15 23 -19 747 -168 538 -111 712 -154 832 -208 63 -28 109 -70 109
-98 0 -7 16 -18 35 -24 19 -6 37 -20 40 -30 3 -10 16 -22 28 -26 12 -4 32 -17
44 -30 12 -13 31 -24 41 -24 43 0 81 -21 87 -50 10 -44 35 -61 73 -51 17 5 41
16 53 24 15 11 36 14 74 10 l52 -5 34 46 c37 52 124 110 197 132 25 8 54 22
65 32 13 11 42 19 91 22 69 5 71 6 68 30 -5 46 7 69 40 78 23 6 34 16 38 33 6
24 51 47 97 48 29 1 53 27 53 57 0 14 10 35 23 48 19 19 37 24 112 29 50 3
103 11 120 17 33 13 130 35 218 51 33 5 71 18 85 28 20 14 51 20 113 24 89 5
117 14 159 52 14 12 60 41 103 64 43 22 91 51 108 63 29 22 44 23 256 30 320
10 339 16 429 130 25 32 64 69 87 82 67 39 212 94 280 106 34 6 76 15 93 21
31 10 97 71 107 101 3 10 21 24 39 31 18 8 46 29 62 46 17 17 34 31 39 31 5 0
39 13 75 29 37 16 108 37 157 46 97 19 343 112 403 152 20 14 58 32 84 40 35
10 69 33 127 88 72 67 121 95 167 95 6 0 17 7 25 16 18 22 75 49 134 63 28 7
79 25 115 41 74 32 219 56 287 46 53 -7 56 13 5 30 -18 5 -37 15 -43 21 -15
15 -3 33 20 33 10 0 44 11 74 25 53 25 57 25 93 10 20 -8 52 -15 70 -15 31 0
34 -3 34 -29 0 -20 -9 -36 -25 -49 -23 -18 -24 -21 -8 -26 54 -16 253 -32 323
-25 8 0 42 -5 75 -11 102 -21 347 2 433 40 38 17 47 28 77 94 19 41 35 89 35
108 l0 32 -20 -20 c-12 -12 -24 -42 -29 -74 -6 -40 -16 -60 -35 -77 -37 -31
-74 -39 -105 -22 -36 20 -37 37 -2 56 34 20 47 41 32 56 -7 7 -24 1 -51 -17
-50 -33 -74 -31 -78 6 -3 22 2 29 22 34 15 3 26 13 26 22 0 9 12 26 27 38 32
26 26 49 -16 57 -23 5 -31 12 -31 27 0 11 7 23 15 26 8 3 17 14 20 25 4 10 12
19 20 19 7 0 20 6 27 13 7 8 23 19 36 26 12 6 22 18 22 26 0 23 18 27 45 9 25
-16 31 -16 106 1 71 17 81 22 99 53 17 27 23 32 35 22 10 -9 11 -18 4 -37 -8
-21 -7 -24 3 -16 7 5 36 28 64 49 28 22 78 53 112 69 l62 30 0 53 0 52 -115 0
-115 0 -17 41 c-11 30 -25 45 -49 55 -39 16 -48 32 -84 134 l-27 75 -83 3 -84
3 -56 57 c-43 46 -71 64 -130 88 l-74 29 -41 75 c-22 42 -48 87 -57 100 -24
33 -22 57 7 92 14 16 25 34 25 38 0 14 -36 30 -68 30 -18 0 -37 10 -52 25 -13
14 -29 25 -35 25 -7 0 -19 8 -28 18 -13 15 -17 39 -17 113 0 52 -4 100 -9 108
-5 8 -29 24 -53 35 -41 20 -50 32 -80 100 -7 16 -26 37 -43 46 -41 23 -42 51
-5 117 39 68 35 94 -20 128 -29 18 -40 32 -40 50 0 28 19 41 75 50 75 12 82
15 93 39 6 14 14 85 18 158 6 121 9 137 35 184 22 39 29 64 29 105 0 36 7 68
21 94 22 40 22 41 4 115 -25 107 -23 103 -43 95 -82 -34 -146 -23 -191 34 -17
21 -31 47 -31 57 -1 11 -6 29 -13 41 -15 27 -5 215 13 255 9 19 27 32 61 43
49 16 65 38 53 69 -9 25 5 104 22 121 9 8 26 15 38 15 l23 0 -4 203 c-3 151
-8 212 -19 242 -11 28 -14 57 -10 100 6 59 -13 250 -28 273 -4 6 3 25 16 42
l22 31 -23 43 c-28 51 -24 72 18 81 17 4 40 19 51 36 12 16 33 32 48 36 15 5
51 22 79 38 43 25 53 35 53 57 0 15 -10 36 -21 47 -15 14 -23 36 -27 71 -4 41
-9 53 -26 60 -38 14 -63 53 -69 102 -2 26 -12 59 -21 73 -17 25 -78 59 -126
69 -14 3 -36 22 -49 41 -15 22 -35 38 -52 42 -16 3 -31 13 -34 23 -3 9 -22 24
-43 32 -35 13 -46 28 -116 157 -89 164 -106 230 -66 251 19 10 27 9 51 -9 37
-27 39 -27 39 10 l0 31 46 -7 c52 -7 64 1 64 46 0 14 8 34 19 43 48 44 31 126
-54 251 -30 44 -55 89 -56 100 -4 51 3 74 32 105 29 30 31 36 25 81 -6 46 -5
50 32 87 56 56 65 88 40 145 -25 57 -18 91 21 111 30 16 29 13 47 176 6 54 -8
78 -57 94 -32 11 -34 13 -31 53 l3 42 -71 22 c-48 14 -82 19 -108 15 -20 -4
-54 -9 -75 -13 -34 -5 -41 -10 -58 -50 -13 -32 -28 -48 -51 -57 -56 -23 -95
-28 -137 -16 -36 10 -41 14 -39 38 1 15 -2 33 -6 40 -11 19 12 42 43 42 33 0
91 35 91 54 0 11 -17 17 -61 22 -85 10 -112 45 -71 92 19 22 108 36 135 20 9
-4 26 -4 39 1 15 5 31 5 41 -1 27 -15 57 0 57 27 0 31 -41 43 -84 26 -78 -32
-101 -23 -130 53 -13 33 -14 50 -6 70 15 40 35 41 91 5 l52 -33 18 23 c27 33
24 61 -11 107 -36 48 -37 77 -4 157 23 56 24 70 18 146 l-7 85 39 33 39 32
-22 43 c-29 58 -35 82 -27 112 5 23 11 26 50 26 40 0 44 2 44 25 0 16 -11 36
-27 50 -16 14 -39 34 -52 46 -18 16 -22 27 -17 52 3 18 7 82 10 144 3 89 7
118 24 145 11 18 23 43 27 56 7 23 5 24 -46 20 -50 -3 -54 -1 -59 22 -8 35
-38 97 -50 105 -6 3 -9 19 -8 35 1 15 -4 35 -11 44 -12 14 -15 14 -37 -1 -21
-14 -30 -14 -63 -3 -28 9 -44 9 -58 2 -28 -15 -62 22 -116 129 -37 71 -51 89
-92 114 -26 17 -72 54 -101 83 -30 28 -59 52 -65 52 -6 0 -29 13 -52 29 -23
16 -58 32 -78 35 -47 8 -65 30 -79 90 -9 40 -8 58 4 95 9 25 18 63 21 84 5 28
18 49 56 85 48 45 49 48 43 89 -4 30 0 57 16 99 14 40 19 69 15 92 -5 29 -1
39 34 78 40 42 41 46 41 112 0 42 -5 75 -14 88 -20 27 -85 48 -130 40 -20 -3
-52 -9 -71 -12 -29 -5 -44 -1 -78 22 -23 16 -51 38 -62 51 -15 17 -46 28 -120
43 -55 12 -107 23 -116 26 -8 2 -18 2 -21 -2z"/>
<path d="M8460 2525 c-14 -8 -35 -14 -47 -15 -24 0 -26 -8 -15 -48 7 -22 9
-20 57 28 50 50 51 61 5 35z"/>
</g>
</svg>
