<?xml version="1.0" ?><!DOCTYPE svg  PUBLIC '-//W3C//DTD SVG 1.1//EN'  'http://www.w3.org/Graphics/SVG/1.1/DTD/svg11.dtd'><svg enable-background="new 0 0 256 256" height="256px" id="Layer_1" version="1.1" viewBox="0 0 256 256" width="256px" xml:space="preserve" xmlns="http://www.w3.org/2000/svg" xmlns:xlink="http://www.w3.org/1999/xlink"><path d="M52.688,128c0-3.534,2.865-6,6.4-6h122.034l-47.141-45.956c-2.538-2.463-2.597-6.616-0.138-9.149  c1.256-1.295,2.925-1.995,4.594-1.995c1.606,0,3.216,0.576,4.456,1.782l58.466,56.737c1.244,1.206,1.943,2.855,1.943,4.587  s-0.699,3.385-1.943,4.591l-58.466,56.743c-2.528,2.459-6.584,2.401-9.05-0.139c-2.459-2.534-2.4-6.789,0.138-9.251L181.122,134  H59.088C55.553,134,52.688,131.534,52.688,128z M0,128c0,70.578,57.422,128,128,128s128-57.422,128-128S198.578,0,128,0  S0,57.422,0,128z M12.8,128C12.8,64.479,64.479,12.8,128,12.8S243.2,64.479,243.2,128S191.521,243.2,128,243.2  S12.8,191.521,12.8,128z"/></svg>