<?xml version="1.0" encoding="utf-8"?>
<!-- Svg Vector Icons : http://www.onlinewebfonts.com/icon -->
<!DOCTYPE svg PUBLIC "-//W3C//DTD SVG 1.1//EN" "http://www.w3.org/Graphics/SVG/1.1/DTD/svg11.dtd">
<svg version="1.1" xmlns="http://www.w3.org/2000/svg" xmlnsXlink="http://www.w3.org/1999/xlink" x="0px" y="0px" viewBox="0 0 1000 1000" enableBackground="new 0 0 1000 1000" xmlSpace="preserve">
<metadata> Svg Vector Icons : http://www.onlinewebfonts.com/icon </metadata>
<g><g><path d="M735.6,770c3.3,35.5,20.9,39.5,51.1,19.5c24.2-16.2,15,12.4,22.1,20.7c35.3,41.3,43.6,110.5,111.5,118.2c20.9,2.4,51.2,15.7,65.8-10.7c11.9-21.6-5.7-37.2-24.5-47.9c-15.6-8.7-11.3-25.7-16.7-37.9c-23.5-53.6,0.8-102.7,3.4-154c2.4-46.6-10.7-93.1,17.1-136.4c7.1-10.9,13.9-28.9-1.9-29.9C911,508,894,447,842.1,442.5c-49.6-4.3-65-38.9-65.5-84.9c-0.6-58.1-8.5-115.6-31.1-169.5c-13.3-31.9-41.2-43.6-74.1-39c-24.9,3.5-30.1,22.8-29.2,45c0.7,17.6-2.6,35.7,0.5,52.8c9.9,59-15.7,83.6-73.4,82.3c-53.3-1.1-84.5,28.9-118.4,69.2c-23.6,27.9-0.6,43.8,3.3,41.5c55.8-31.9,82.3,28,116.1,44.3c48.3,23.3,112.5,25.1,145.2,71.7c35.7,51,94.4,86.7,105.9,163c-13.3,1-25.7,3.8-37.6,2.4C745.4,716.4,732.8,738.6,735.6,770z"/><path d="M110.8,231.2c56.6,0.9,42.4-53.6,67.1-82.4c-26.9-34.6-42-82-96.8-82.6c-35.2-0.4-65.6,12.7-71,52.7C6,148.9,82.3,230.8,110.8,231.2z"/></g><g></g><g></g><g></g><g></g><g></g><g></g><g></g><g></g><g></g><g></g><g></g><g></g><g></g><g></g><g></g></g>
</svg>