<?xml version="1.0" standalone="no"?>
<!DOCTYPE svg PUBLIC "-//W3C//DTD SVG 20010904//EN"
 "http://www.w3.org/TR/2001/REC-SVG-20010904/DTD/svg10.dtd">
<svg version="1.0" xmlns="http://www.w3.org/2000/svg"
 width="1280.000000pt" height="1250.000000pt" viewBox="0 0 1280.000000 1250.000000"
 preserveAspectRatio="xMidYMid meet">
<g transform="translate(0.000000,1250.000000) scale(0.100000,-0.100000)"
fill="#000000" stroke="none">
<path d="M1696 12491 c-3 -4 -34 -16 -68 -26 -35 -9 -106 -35 -160 -56 -53
-22 -112 -39 -132 -39 -33 0 -36 -2 -36 -29 0 -21 9 -36 33 -54 35 -26 77
-116 77 -163 0 -25 43 -58 112 -87 54 -23 108 -79 108 -114 0 -17 11 -45 25
-64 59 -81 69 -114 69 -254 0 -86 -4 -141 -12 -161 -16 -37 -7 -60 61 -156 36
-50 39 -60 29 -80 -41 -82 -53 -133 -47 -198 l7 -66 -45 -37 c-51 -41 -66 -44
-104 -20 -25 17 -26 16 -47 -10 -17 -21 -30 -27 -62 -27 -70 0 -102 -30 -164
-156 -30 -61 -61 -119 -69 -128 -13 -15 -8 -21 14 -16 21 4 75 -12 75 -22 0
-5 -17 -32 -39 -59 -21 -26 -44 -69 -51 -94 l-13 -47 51 -50 50 -51 32 26 c17
15 37 27 43 27 23 0 75 -39 82 -60 5 -17 12 -20 31 -16 15 4 34 0 50 -10 23
-16 29 -16 86 0 34 9 65 13 70 8 4 -4 -5 -26 -22 -48 -16 -21 -30 -43 -30 -47
0 -4 10 -21 22 -38 19 -25 22 -44 23 -119 2 -100 11 -89 -100 -124 -52 -17
-125 -60 -125 -75 0 -5 7 -11 15 -15 44 -17 -16 -102 -92 -131 -27 -10 -54
-23 -62 -29 -7 -6 -21 -11 -29 -11 -10 0 -35 -34 -62 -80 -39 -70 -46 -89 -50
-155 l-5 -75 -32 3 c-28 3 -32 -1 -43 -32 -7 -21 -30 -51 -55 -72 -38 -31 -46
-45 -61 -104 -21 -81 -97 -192 -148 -217 -28 -13 -36 -25 -49 -73 -14 -48 -23
-61 -52 -79 -20 -11 -42 -21 -50 -21 -7 0 -16 -8 -19 -17 -3 -10 -31 -31 -61
-48 -48 -25 -58 -28 -76 -17 -22 14 -39 8 -39 -12 0 -8 -17 -27 -37 -42 l-38
-29 -195 -5 -195 -5 -6 -50 c-6 -43 -33 -117 -70 -191 -17 -33 7 -232 42 -354
17 -58 72 -213 121 -345 131 -350 147 -407 155 -550 5 -105 3 -129 -16 -193
-20 -65 -21 -85 -15 -215 6 -134 9 -148 46 -241 89 -226 210 -374 428 -524
172 -118 319 -313 405 -537 15 -39 60 -140 100 -225 114 -239 212 -479 231
-561 12 -54 26 -86 51 -117 22 -27 50 -86 78 -163 54 -149 95 -223 197 -361
105 -142 151 -183 212 -192 42 -7 53 -4 84 18 l35 25 51 -20 c58 -22 98 -24
125 -7 17 10 23 8 38 -10 10 -13 34 -25 57 -29 21 -3 65 -24 97 -45 l59 -40 0
-63 c0 -64 0 -64 45 -102 25 -20 64 -44 87 -53 41 -15 44 -15 69 3 27 19 28
19 105 -4 44 -12 85 -27 92 -32 6 -5 12 -27 12 -49 0 -21 7 -55 15 -75 l15
-36 58 8 c79 11 153 7 177 -11 103 -75 122 -80 253 -59 l53 8 72 -76 c61 -63
81 -78 126 -91 30 -9 75 -16 99 -16 35 0 52 -6 79 -30 35 -31 132 -85 193
-107 31 -11 37 -10 55 7 28 26 32 25 54 -11 33 -54 185 -136 229 -123 15 4 49
6 75 5 59 -4 154 -64 177 -114 14 -29 20 -32 65 -35 41 -3 52 0 66 19 16 22
18 22 65 7 44 -14 52 -14 101 3 67 24 86 24 108 -1 10 -12 35 -30 54 -42 20
-12 50 -38 68 -57 46 -52 59 -34 55 74 l-3 85 48 30 c57 35 67 36 85 11 8 -11
41 -39 73 -64 69 -50 277 -264 339 -346 41 -56 87 -128 133 -208 20 -34 23
-49 16 -70 -7 -21 -4 -38 13 -72 28 -60 41 -192 24 -261 -11 -44 -10 -53 4
-69 18 -20 22 -66 6 -76 -5 -3 -10 -19 -10 -34 0 -21 10 -36 35 -55 19 -15 35
-34 35 -43 0 -9 7 -24 15 -33 8 -9 16 -33 19 -54 3 -20 9 -43 15 -50 6 -7 9
-55 7 -121 -4 -101 -7 -114 -38 -172 -28 -54 -31 -65 -20 -83 6 -11 12 -33 12
-48 0 -21 7 -32 25 -40 13 -6 31 -25 39 -41 9 -16 25 -32 36 -36 11 -3 25 -16
31 -28 6 -12 20 -31 29 -42 10 -11 20 -31 22 -45 2 -15 17 -33 38 -46 72 -46
95 -72 122 -141 15 -37 29 -83 30 -102 l3 -34 115 2 c63 0 160 4 216 7 82 5
106 4 132 -10 18 -9 55 -18 82 -20 27 -2 57 -9 65 -16 12 -10 18 -10 30 0 8 7
44 14 79 15 35 1 68 5 74 9 6 3 18 29 27 56 15 44 21 51 57 62 26 8 51 26 71
51 26 32 36 37 57 32 14 -4 50 -10 80 -13 l55 -7 5 -39 c5 -38 6 -39 65 -56
70 -19 171 -74 185 -100 6 -10 10 -46 10 -79 l0 -61 51 0 c28 0 75 7 104 15
34 10 78 14 123 12 64 -4 74 -8 103 -36 21 -22 37 -30 48 -25 9 4 33 8 54 10
57 4 116 34 138 70 11 18 37 48 59 68 34 30 43 34 67 26 58 -18 132 -21 167
-6 32 13 36 13 53 -6 30 -34 119 -86 160 -94 21 -4 52 -13 68 -20 22 -9 45 -9
88 -2 47 8 62 7 80 -5 13 -8 40 -20 59 -25 32 -9 39 -7 59 14 34 36 107 74
143 74 17 0 45 9 61 21 17 11 63 36 103 54 79 37 92 55 84 117 -3 26 2 47 17
71 12 19 21 45 21 58 1 35 50 89 96 105 63 22 205 37 238 24 15 -5 49 -10 76
-10 37 0 55 -6 78 -25 17 -14 35 -25 41 -25 5 0 26 -14 45 -30 18 -17 59 -42
91 -56 l57 -26 27 21 c14 12 36 25 48 30 11 6 36 28 53 50 39 47 104 77 151
67 24 -5 38 -1 61 19 16 14 36 25 44 25 7 0 20 11 29 23 28 43 55 48 265 46
221 -1 229 0 325 80 28 23 61 44 75 48 14 3 41 21 62 40 37 36 122 77 193 93
101 22 244 81 272 112 8 10 32 20 52 24 81 13 117 36 215 130 89 85 218 174
254 174 6 0 35 23 64 51 53 50 53 51 59 127 7 79 -3 121 -29 130 -9 3 -13 -4
-12 -19 4 -48 2 -50 -42 -47 -42 3 -43 4 -60 55 -10 28 -28 62 -41 75 -13 13
-27 31 -31 39 -4 9 -8 10 -11 3 -16 -33 -35 -46 -73 -51 -37 -5 -43 -3 -51 18
-5 14 -5 34 0 47 10 26 4 42 -14 42 -7 0 -39 11 -71 25 -45 18 -63 22 -73 13
-16 -13 -15 -14 -41 38 -24 47 -75 94 -101 94 -10 0 -31 10 -46 22 -16 12 -47
23 -76 26 -27 2 -49 8 -49 13 0 5 14 24 30 43 50 56 76 166 40 166 -17 0 -49
80 -44 110 4 16 -1 42 -10 61 -8 19 -14 41 -14 49 3 21 -50 130 -62 130 -6 0
-18 16 -27 35 -10 21 -27 38 -40 41 -31 8 -29 14 13 48 l36 29 -7 86 c-4 53
-16 109 -31 147 -13 33 -24 72 -24 86 0 26 -22 53 -33 41 -4 -3 -7 -16 -7 -27
0 -12 -15 -33 -35 -49 l-35 -28 -10 28 c-6 15 -13 34 -15 41 -2 7 0 24 6 39
14 38 -7 114 -33 121 -15 3 -18 11 -14 28 5 17 2 24 -9 24 -19 0 -19 14 -1 29
19 16 47 1 76 -39 23 -33 28 -35 50 -20 13 9 13 12 -3 21 -21 13 -47 61 -47
90 0 14 -5 19 -14 16 -17 -7 -56 33 -56 56 0 10 -15 24 -34 33 -40 20 -68 72
-60 112 5 23 -3 43 -41 98 l-48 69 6 75 c5 62 2 83 -14 119 -10 24 -19 45 -19
47 0 1 19 4 43 6 42 3 42 3 62 63 11 33 23 65 27 71 4 5 21 48 37 94 32 88 38
131 21 174 -7 19 -5 43 6 86 8 33 14 73 12 88 -3 24 -7 27 -35 25 -25 -2 -36
3 -53 27 -12 17 -30 30 -40 30 -34 0 -42 28 -42 155 0 114 35 205 79 205 7 0
13 5 13 10 0 6 -4 10 -10 10 -32 0 13 144 59 184 11 11 21 27 21 36 0 24 22
40 64 47 23 3 38 12 41 24 4 11 11 19 16 19 5 0 9 37 9 82 0 60 -4 86 -16 99
-8 9 -23 39 -34 65 -18 48 -19 49 -69 56 -56 9 -111 32 -111 48 0 6 -13 10
-29 10 -29 0 -41 14 -41 51 0 11 -7 19 -17 19 -22 0 -53 52 -53 88 0 26 -6 34
-119 150 -49 49 -68 62 -92 62 -37 0 -145 54 -159 79 -5 11 -10 31 -10 44 0
16 -9 28 -26 36 -25 11 -26 14 -21 69 3 31 9 77 12 102 6 42 4 50 -39 113 -50
74 -58 119 -31 167 8 14 14 49 15 79 0 46 7 66 46 134 32 56 47 94 50 125 1
26 10 53 22 66 38 43 70 112 77 170 4 38 13 65 25 75 11 9 33 53 50 99 28 74
38 88 81 119 27 19 49 41 49 48 0 7 -12 23 -27 34 -23 17 -25 22 -14 30 8 5
20 7 28 4 25 -10 13 28 -17 54 -36 30 -38 50 -5 65 27 12 45 66 25 78 -18 11
-8 56 11 52 24 -3 47 85 51 190 l3 88 -785 545 c-432 300 -799 562 -817 582
-18 19 -42 64 -53 98 -21 64 -32 78 -87 108 -26 14 -36 15 -57 6 -32 -15 -36
-11 -47 46 -11 58 3 89 71 160 l48 50 -9 55 c-4 30 -13 88 -19 129 -12 91 -25
112 -87 141 -26 12 -55 28 -63 35 -8 7 -305 177 -660 377 -355 201 -1113 630
-1685 953 -572 324 -1170 662 -1329 752 -285 161 -290 163 -336 157 -45 -6
-48 -5 -54 20 l-6 26 -1798 -7 c-1663 -6 -1799 -5 -1829 10 -35 18 -69 22 -77
8z"/>
<path d="M11910 7933 c-6 -32 -17 -86 -25 -120 -18 -73 -18 -73 -5 -73 14 0
74 -61 90 -90 10 -19 10 -24 -3 -31 -8 -5 -13 -17 -10 -27 2 -11 -8 -29 -26
-47 -17 -17 -31 -35 -31 -42 0 -6 -14 -22 -30 -35 -17 -13 -42 -32 -57 -44
l-26 -21 37 -41 c45 -49 63 -56 113 -43 73 20 135 117 162 254 17 90 42 370
33 379 -4 4 -25 -1 -47 -12 -39 -20 -39 -20 -60 0 -12 11 -30 20 -41 20 -11 0
-29 7 -41 15 -21 15 -22 14 -33 -42z"/>
<path d="M11475 6953 c-9 -77 -33 -107 -97 -127 -24 -7 -24 -76 -2 -160 9 -33
16 -78 15 -99 -1 -22 3 -45 10 -53 9 -11 9 -20 0 -38 -11 -19 -10 -29 2 -53
15 -29 45 -60 50 -52 2 2 8 17 15 32 15 36 39 32 61 -9 10 -18 25 -39 34 -49
9 -9 17 -24 17 -32 0 -14 112 -142 132 -151 13 -6 78 50 84 73 4 16 -3 31 -27
54 -32 32 -32 33 -26 109 4 56 2 84 -8 102 -12 22 -14 23 -20 8 -5 -12 -18
-18 -40 -18 -35 0 -45 15 -45 76 0 17 -16 62 -36 101 -30 61 -36 84 -43 172
-6 77 -13 109 -28 128 -31 42 -41 39 -48 -14z"/>
<path d="M11390 6899 c0 -11 5 -17 10 -14 6 3 10 13 10 21 0 8 -4 14 -10 14
-5 0 -10 -9 -10 -21z"/>
<path d="M12152 4768 c-7 -7 -12 -19 -12 -28 0 -22 -64 -80 -138 -125 -37 -23
-61 -44 -58 -51 7 -18 -50 -87 -85 -102 -34 -14 -35 -19 -11 -49 12 -16 35
-25 81 -32 66 -11 84 -23 73 -49 -3 -10 -1 -13 6 -8 15 9 52 80 52 99 0 8 8
25 19 38 10 13 22 40 26 59 4 19 16 49 26 67 17 27 48 144 49 181 0 15 -12 16
-28 0z"/>
</g>
</svg>
